{"accessors" : [{"bufferView" : 0, "byteOffset" : 0, "componentType" : 5123, "count" : 3336, "type" : "SCALAR", "max" : [3256], "min" : [0]}, {"bufferView" : 1, "byteOffset" : 0, "componentType" : 5126, "count" : 3257, "type" : "VEC3", "max" : [5.948500156402588, 3.6810319423675537, 15.502195358276367], "min" : [-4.129157543182373, -5.598342418670654, -1.6434898376464844], "name" : "POSITION"}, {"bufferView" : 1, "byteOffset" : 12, "componentType" : 5126, "count" : 3257, "type" : "VEC3", "max" : [0.9991105198860168, 0.9984052181243896, 0.9997636079788208], "min" : [-0.9982103109359741, -0.9999101758003235, -0.9994750022888184], "name" : "NORMAL"}, {"bufferView" : 1, "byteOffset" : 24, "componentType" : 5126, "count" : 3257, "type" : "VEC2", "max" : [1, -0], "min" : [0, -1], "name" : "TEXCOORD_0"}, {"bufferView" : 0, "byteOffset" : 6672, "componentType" : 5123, "count" : 960, "type" : "SCALAR", "max" : [959], "min" : [0]}, {"bufferView" : 2, "byteOffset" : 0, "componentType" : 5126, "count" : 960, "type" : "VEC3", "max" : [1.116955280303955, 1.662764310836792, 1.30933678150177], "min" : [-2.2042722702026367, -2.276538133621216, -1.6818276643753052], "name" : "POSITION"}, {"bufferView" : 2, "byteOffset" : 12, "componentType" : 5126, "count" : 960, "type" : "VEC3", "max" : [0.9979299902915955, 0.9982895851135254, 0.9958733916282654], "min" : [-0.9976834654808044, -0.998420774936676, -0.9969935417175293], "name" : "NORMAL"}, {"bufferView" : 2, "byteOffset" : 24, "componentType" : 5126, "count" : 960, "type" : "VEC2", "max" : [1, -0], "min" : [0, -1], "name" : "TEXCOORD_0"}], "asset" : {"generator" : "Aspose.3D 22.10", "version" : "2.0"}, "buffers" : [{"uri" : "data:application/octet-stream;base64,", "byteLength" : 146076}], "bufferViews" : [{"buffer" : 0, "byteOffset" : 0, "byteLength" : 8592, "target" : 34963}, {"buffer" : 0, "byteOffset" : 8596, "byteLength" : 106752, "byteStride" : 32, "target" : 34962}, {"buffer" : 0, "byteOffset" : 115352, "byteLength" : 30720, "byteStride" : 32, "target" : 34962}], "materials" : [{"name" : "trunk", "pbrMetallicRoughness" : {"baseColorFactor" : [0.20784313725490197, 0.13725490196078433, 0.054901960784313725, 1], "metallicFactor" : 0, "roughnessFactor" : 0}, "emissiveFactor" : [0, 0, 0], "alphaMode" : "OPAQUE", "doubleSided" : false}, {"name" : "leaves", "pbrMetallicRoughness" : {"baseColorFactor" : [0.2549019607843137, 0.4392156862745098, 0.10980392156862745, 1], "metallicFactor" : 0, "roughnessFactor" : 0}, "emissiveFactor" : [0, 0, 0], "alphaMode" : "OPAQUE", "doubleSided" : false}], "meshes" : [{"primitives" : [{"attributes" : {"POSITION" : 1, "NORMAL" : 2, "TEXCOORD_0" : 3}, "indices" : 0, "material" : 0, "mode" : 4}], "name" : "Cylinder-mesh"}, {"primitives" : [{"attributes" : {"POSITION" : 5, "NORMAL" : 6, "TEXCOORD_0" : 7}, "indices" : 4, "material" : 1, "mode" : 4}], "name" : "Icosphere-mesh"}], "nodes" : [{"matrix" : [0.03999999910593033, 0, 0, 0, 0, 1.1331077542026635E-17, -0.03999999910593033, 0, 0, 0.03999999910593033, 1.1331077542026635E-17, 0, -0.006200000643730164, 0.13770000636577606, -0.024900000542402267, 1], "mesh" : 0, "name" : "Cylinder"}, {"matrix" : [0.198704794049263, 0, 0, 0, 0, 5.628848699176152E-17, -0.198704794049263, 0, 0, 0.198704794049263, 5.628848699176152E-17, 0, 0.1340135931968689, 0.6847280263900757, -0.07181279361248016, 1], "mesh" : 1, "name" : "Icosphere"}, {"children" : [0, 1], "matrix" : [1, 0, 0, 0, 0, 1, 0, 0, 0, 0, 1, 0, -0.031, 0, 0.0124, 1], "name" : "Tree"}], "scene" : 0, "scenes" : [{"nodes" : [2]}]}